<svg width="21" height="26" viewBox="0 0 21 26" fill="none" xmlns="http://www.w3.org/2000/svg">
<path d="M0.939623 0.0789375C0.606615 0.1805 0.207006 0.525812 0.0919668 0.805109C0.0132558 1.00823 0.00114645 2.37425 0.00114645 12.9977C0.00114645 26.4903 -0.0472911 25.2563 0.485521 25.6575C0.642943 25.7793 0.885131 25.9063 1.01833 25.9367C1.30896 26.0129 13.8724 26.0231 14.0359 25.952C14.0965 25.9266 15.5375 24.718 17.2449 23.2657L20.3449 20.62L20.3328 19.5739L20.3146 18.5227L19.7697 18.4059C19.0916 18.2586 19.134 18.2739 17.7111 17.7203C16.3004 17.1719 15.9189 17.0856 15.0773 17.1364C14.7625 17.1567 14.2599 17.1871 13.9572 17.2075C13.497 17.2328 13.376 17.2582 13.2004 17.37C13.0853 17.441 12.8916 17.5325 12.7765 17.5629C12.4496 17.6594 10.3668 17.7 10.0277 17.6188C9.70076 17.5426 9.25271 17.2328 9.14372 17.0094L9.07107 16.8571H5.77126H2.47751L2.3322 16.7301C2.23533 16.6539 2.18083 16.5473 2.18083 16.4508C2.18083 16.3543 2.23533 16.2477 2.3322 16.1715L2.47751 16.0446H5.76521H9.0529L9.19822 15.6992C9.27693 15.5114 9.35564 15.3285 9.3738 15.293C9.39197 15.2473 8.70779 15.2321 6.06189 15.2321H2.7197L2.57439 15.1051C2.37458 14.9426 2.37458 14.709 2.57439 14.5465L2.7197 14.4196H6.24958L9.77947 14.4145L9.90662 14.2469C10.0217 14.0946 10.0277 14.0489 9.97322 13.8407L9.91267 13.6071H6.31618H2.7197L2.57439 13.4801C2.47751 13.4039 2.42302 13.2973 2.42302 13.2008C2.42302 13.1043 2.47751 12.9977 2.57439 12.9215L2.7197 12.7946H6.48572H10.2457L10.5363 12.6168C10.6937 12.5203 10.9299 12.3426 11.057 12.2258L11.2871 12.0075L6.97009 11.9821L2.6531 11.9567L2.53806 11.8348C2.38064 11.6723 2.39275 11.4438 2.57439 11.2965L2.7197 11.1696H7.27888H11.8441L11.9592 11.002C12.0197 10.9157 12.1953 10.7328 12.3406 10.6008L12.6131 10.3571H7.66638H2.7197L2.57439 10.2301C2.47751 10.1539 2.42302 10.0473 2.42302 9.95081C2.42302 9.85433 2.47751 9.74769 2.57439 9.67151L2.7197 9.54456H8.67146H14.6232L15.3498 9.13831L16.0763 8.73206H9.39802H2.7197L2.57439 8.60511C2.37458 8.44261 2.37458 8.20901 2.57439 8.04651L2.7197 7.91956H10.173C17.3236 7.91956 17.6263 7.92464 17.7293 8.01097C17.7959 8.06683 17.9715 8.11761 18.1592 8.13792C18.3287 8.15316 18.6435 8.23948 18.8554 8.32581L19.249 8.47816L19.6183 8.28011C19.8181 8.16839 20.0664 8.06175 20.1633 8.04651L20.3449 8.01097V4.53245C20.3449 1.98831 20.3267 0.998077 20.2722 0.850813C20.2359 0.739094 20.0845 0.535969 19.9392 0.403938C19.467 -0.037859 20.2783 -0.00231171 10.1488 0.00276566C2.44119 0.00276566 1.14548 0.0129223 0.939623 0.0789375ZM17.7717 6.42151C17.9715 6.58401 17.9715 6.81761 17.7717 6.98011L17.6263 7.10706H10.173H2.7197L2.57439 6.98011C2.47751 6.90394 2.42302 6.7973 2.42302 6.70081C2.42302 6.60433 2.47751 6.49769 2.57439 6.42151L2.7197 6.29456H10.173H17.6263L17.7717 6.42151ZM17.9957 21.4629C17.5295 21.8793 16.5547 22.7071 15.8402 23.3063L14.5324 24.3981V22.6817V20.9653L14.6838 20.8434L14.8291 20.7164H16.8392H18.8433L17.9957 21.4629Z" fill="white"/>
</svg>
