<svg width="17" height="16" viewBox="0 0 17 16" fill="none" xmlns="http://www.w3.org/2000/svg">
<path fill-rule="evenodd" clip-rule="evenodd" d="M2.82414 4.36711C2.53125 4.66001 2.53125 5.13141 2.53125 6.07422V10.8242C2.53125 11.767 2.53125 12.2384 2.82414 12.5313C3.11704 12.8242 3.58844 12.8242 4.53125 12.8242H12.5312C13.4741 12.8242 13.9455 12.8242 14.2384 12.5313C14.5312 12.2384 14.5312 11.767 14.5312 10.8242V6.07422C14.5312 5.13141 14.5312 4.66001 14.2384 4.36711C13.9455 4.07422 13.4741 4.07422 12.5312 4.07422H4.53125C3.58844 4.07422 3.11704 4.07422 2.82414 4.36711ZM5.06125 5.72622C4.59291 5.43351 3.97596 5.57588 3.68325 6.04422C3.39054 6.51256 3.53291 7.12951 4.00125 7.42222L7.47125 9.59097C8.11979 9.99631 8.94271 9.99631 9.59125 9.59097L13.0612 7.42222C13.5296 7.12951 13.672 6.51256 13.3792 6.04422C13.0865 5.57588 12.4696 5.43351 12.0013 5.72622L8.53125 7.89497L5.06125 5.72622Z" fill="white"/>
</svg>
