<svg width="572" height="222" viewBox="0 0 572 222" fill="none" xmlns="http://www.w3.org/2000/svg">
<g id="Group 632971">
<g id="Group 632967">
<path id="Vector 619" d="M193.648 65.3342L172.133 59.0205L173.574 38.9221C106.869 7.53536 44.9729 25.8443 22.3632 38.9221C20.347 53.3233 23.9833 76.9654 26.0535 86.9863L135.683 116.509C131.147 132.71 108.231 156.502 97.3397 166.373C88.627 161.189 70.8774 141.171 59.9725 118.505L9.17083 103.797C0.717418 84.9461 -0.39854 44.139 0.100157 26.0919C82.7389 -20.4928 164.285 5.76185 194.729 24.7122L193.648 65.3342Z" fill="#273953"/>
<path id="Vector 620" d="M44.7009 136.939L16.9555 129.962C33.118 173.502 77.3787 209.244 97.4888 221.672C156.32 179.223 185.694 131.325 190.186 87.4858L149.448 75.5362L150.942 53.6464C109.987 33.6361 63.0502 45.3088 44.7009 53.6464V69.1866L164.761 102.293C149.353 150.755 113.493 184.278 97.4888 194.981C71.3832 177.112 51.4195 148.841 44.7009 136.939Z" fill="#273953"/>
</g>
<path id="Saut" d="M277.272 116.68C270.986 116.68 264.894 115.787 258.996 114.002C253.176 112.218 248.559 109.851 245.144 106.902L250.383 95.1451C253.719 97.7836 257.794 99.9564 262.605 101.664C267.494 103.293 272.383 104.108 277.272 104.108C283.325 104.108 287.826 103.138 290.774 101.198C293.801 99.258 295.314 96.6971 295.314 93.5154C295.314 91.1874 294.461 89.2861 292.753 87.8117C291.124 86.2597 289.028 85.0568 286.468 84.2032C283.907 83.3496 280.415 82.3796 275.991 81.2931C269.783 79.8187 264.739 78.3442 260.859 76.8698C257.056 75.3954 253.758 73.1061 250.965 70.002C248.249 66.8203 246.89 62.5522 246.89 57.1977C246.89 52.6968 248.093 48.6227 250.499 44.9754C252.982 41.2505 256.668 38.3016 261.557 36.1287C266.524 33.9559 272.577 32.8694 279.716 32.8694C284.683 32.8694 289.572 33.4903 294.383 34.7319C299.194 35.9735 303.346 37.7584 306.838 40.0864L302.066 51.8431C298.496 49.7479 294.771 48.157 290.891 47.0706C287.011 45.9842 283.247 45.441 279.6 45.441C273.624 45.441 269.162 46.4498 266.213 48.4675C263.342 50.4851 261.906 53.1624 261.906 56.4993C261.906 58.8273 262.721 60.7286 264.351 62.203C266.058 63.6775 268.192 64.8415 270.753 65.6951C273.314 66.5487 276.806 67.5188 281.229 68.6052C287.282 70.002 292.249 71.4765 296.129 73.0285C300.009 74.5029 303.307 76.7922 306.023 79.8963C308.817 83.0004 310.214 87.1909 310.214 92.4678C310.214 96.9687 308.972 101.043 306.489 104.69C304.083 108.337 300.397 111.248 295.431 113.42C290.464 115.593 284.411 116.68 277.272 116.68ZM378.066 96.6583H337.325L329.293 115.516H313.695L350.362 34.0335H365.261L402.045 115.516H386.214L378.066 96.6583ZM373.06 84.7852L357.695 49.1659L342.446 84.7852H373.06ZM445.74 116.68C434.487 116.68 425.718 113.537 419.433 107.251C413.147 100.888 410.004 91.8082 410.004 80.0127V34.0335H425.136V79.4307C425.136 95.4167 432.043 103.41 445.856 103.41C459.592 103.41 466.459 95.4167 466.459 79.4307V34.0335H481.359V80.0127C481.359 91.8082 478.216 100.888 471.93 107.251C465.722 113.537 456.992 116.68 445.74 116.68ZM517.603 46.8378H490.598V34.0335H559.741V46.8378H532.735V115.516H517.603V46.8378Z" fill="#273953"/>
<path id="Education" d="M277.585 178.474V184.904H246.615V143.611H276.76V150.04H254.284V160.777H274.223V167.089H254.284V178.474H277.585ZM315.99 141.133V184.904H308.912V180.833C307.692 182.328 306.178 183.449 304.369 184.196C302.6 184.943 300.633 185.317 298.47 185.317C295.442 185.317 292.709 184.648 290.271 183.311C287.872 181.974 285.984 180.086 284.608 177.648C283.231 175.17 282.543 172.339 282.543 169.153C282.543 165.968 283.231 163.156 284.608 160.718C285.984 158.279 287.872 156.392 290.271 155.055C292.709 153.718 295.442 153.049 298.47 153.049C300.555 153.049 302.462 153.403 304.192 154.111C305.923 154.819 307.397 155.881 308.617 157.296V141.133H315.99ZM299.355 179.005C301.125 179.005 302.718 178.611 304.133 177.825C305.549 176.999 306.67 175.839 307.496 174.345C308.322 172.85 308.735 171.12 308.735 169.153C308.735 167.187 308.322 165.457 307.496 163.962C306.67 162.468 305.549 161.327 304.133 160.541C302.718 159.715 301.125 159.302 299.355 159.302C297.585 159.302 295.993 159.715 294.577 160.541C293.161 161.327 292.04 162.468 291.214 163.962C290.389 165.457 289.976 167.187 289.976 169.153C289.976 171.12 290.389 172.85 291.214 174.345C292.04 175.839 293.161 176.999 294.577 177.825C295.993 178.611 297.585 179.005 299.355 179.005ZM356.135 153.403V184.904H349.115V180.892C347.935 182.308 346.46 183.409 344.691 184.196C342.921 184.943 341.014 185.317 338.969 185.317C334.761 185.317 331.437 184.157 328.999 181.836C326.6 179.477 325.401 175.996 325.401 171.395V153.403H332.775V170.392C332.775 173.224 333.404 175.347 334.662 176.763C335.96 178.14 337.789 178.828 340.148 178.828C342.783 178.828 344.868 178.022 346.401 176.409C347.974 174.757 348.761 172.398 348.761 169.33V153.403H356.135ZM380.242 185.317C376.978 185.317 374.048 184.629 371.452 183.252C368.857 181.876 366.832 179.968 365.376 177.53C363.921 175.052 363.194 172.26 363.194 169.153C363.194 166.047 363.921 163.274 365.376 160.836C366.832 158.397 368.837 156.49 371.393 155.114C373.989 153.737 376.939 153.049 380.242 153.049C383.349 153.049 386.062 153.678 388.383 154.937C390.742 156.195 392.512 158.004 393.692 160.364L388.029 163.667C387.124 162.212 385.984 161.131 384.607 160.423C383.27 159.676 381.795 159.302 380.183 159.302C377.43 159.302 375.149 160.206 373.34 162.016C371.531 163.785 370.627 166.165 370.627 169.153C370.627 172.142 371.511 174.541 373.281 176.35C375.09 178.12 377.391 179.005 380.183 179.005C381.795 179.005 383.27 178.651 384.607 177.943C385.984 177.196 387.124 176.095 388.029 174.639L393.692 177.943C392.473 180.303 390.683 182.131 388.324 183.429C386.003 184.688 383.31 185.317 380.242 185.317ZM412.1 153.049C416.741 153.049 420.28 154.17 422.718 156.411C425.196 158.614 426.435 161.957 426.435 166.44V184.904H419.474V181.069C418.569 182.446 417.272 183.508 415.581 184.255C413.929 184.963 411.923 185.317 409.564 185.317C407.204 185.317 405.139 184.923 403.37 184.137C401.6 183.311 400.223 182.19 399.24 180.774C398.296 179.319 397.824 177.687 397.824 175.878C397.824 173.047 398.867 170.785 400.951 169.094C403.075 167.364 406.398 166.499 410.92 166.499H419.061V166.027C419.061 163.825 418.392 162.134 417.055 160.954C415.757 159.774 413.811 159.184 411.215 159.184C409.446 159.184 407.695 159.459 405.965 160.01C404.274 160.56 402.839 161.327 401.659 162.31L398.768 156.942C400.42 155.684 402.406 154.72 404.726 154.052C407.047 153.383 409.505 153.049 412.1 153.049ZM411.097 179.949C412.946 179.949 414.578 179.536 415.993 178.71C417.449 177.845 418.471 176.625 419.061 175.052V171.395H411.451C407.204 171.395 405.08 172.791 405.08 175.583C405.08 176.92 405.611 177.982 406.673 178.769C407.735 179.555 409.21 179.949 411.097 179.949ZM454.834 183.193C453.969 183.901 452.907 184.432 451.649 184.786C450.429 185.14 449.132 185.317 447.755 185.317C444.294 185.317 441.62 184.412 439.732 182.603C437.845 180.794 436.901 178.159 436.901 174.698V159.538H431.71V153.639H436.901V146.442H444.275V153.639H452.71V159.538H444.275V174.521C444.275 176.055 444.648 177.235 445.396 178.061C446.143 178.847 447.224 179.241 448.64 179.241C450.292 179.241 451.668 178.808 452.769 177.943L454.834 183.193ZM460.9 153.403H468.274V184.904H460.9V153.403ZM464.616 148.212C463.279 148.212 462.158 147.799 461.254 146.973C460.349 146.108 459.897 145.046 459.897 143.787C459.897 142.529 460.349 141.487 461.254 140.661C462.158 139.796 463.279 139.363 464.616 139.363C465.953 139.363 467.074 139.776 467.979 140.602C468.883 141.389 469.336 142.391 469.336 143.611C469.336 144.908 468.883 146.009 467.979 146.914C467.114 147.779 465.993 148.212 464.616 148.212ZM492.11 185.317C488.924 185.317 486.053 184.629 483.497 183.252C480.941 181.876 478.935 179.968 477.48 177.53C476.064 175.052 475.356 172.26 475.356 169.153C475.356 166.047 476.064 163.274 477.48 160.836C478.935 158.397 480.941 156.49 483.497 155.114C486.053 153.737 488.924 153.049 492.11 153.049C495.334 153.049 498.225 153.737 500.781 155.114C503.337 156.49 505.323 158.397 506.739 160.836C508.194 163.274 508.922 166.047 508.922 169.153C508.922 172.26 508.194 175.052 506.739 177.53C505.323 179.968 503.337 181.876 500.781 183.252C498.225 184.629 495.334 185.317 492.11 185.317ZM492.11 179.005C494.823 179.005 497.065 178.1 498.834 176.291C500.604 174.482 501.489 172.103 501.489 169.153C501.489 166.204 500.604 163.825 498.834 162.016C497.065 160.206 494.823 159.302 492.11 159.302C489.396 159.302 487.154 160.206 485.385 162.016C483.654 163.825 482.789 166.204 482.789 169.153C482.789 172.103 483.654 174.482 485.385 176.291C487.154 178.1 489.396 179.005 492.11 179.005ZM533.847 153.049C537.819 153.049 541.005 154.209 543.404 156.529C545.802 158.85 547.002 162.291 547.002 166.853V184.904H539.628V167.797C539.628 165.044 538.979 162.979 537.681 161.603C536.384 160.187 534.535 159.479 532.136 159.479C529.423 159.479 527.279 160.305 525.706 161.957C524.133 163.569 523.347 165.909 523.347 168.976V184.904H515.973V153.403H522.993V157.473C524.212 156.018 525.746 154.917 527.594 154.17C529.442 153.423 531.527 153.049 533.847 153.049Z" fill="#273953"/>
</g>
</svg>
