<svg width="17" height="11" viewBox="0 0 17 11" fill="none" xmlns="http://www.w3.org/2000/svg">
<path d="M11.581 0.777882C11.351 0.843897 11.1875 0.920069 10.6971 1.2146L10.249 1.48882L9.95839 1.31108C9.01991 0.752491 8.69901 0.803272 6.92499 1.79858C5.88964 2.37749 5.70194 2.46382 5.13885 2.60601C4.31542 2.80913 4.01268 3.0478 3.4496 3.92632C3.04999 4.54585 2.78358 4.83022 2.31132 5.13999C2.11757 5.26694 1.94198 5.42437 1.92382 5.49038C1.86327 5.67827 2.00858 5.88647 2.26893 6.00835C2.39608 6.06929 2.50507 6.1353 2.50507 6.15562C2.49901 6.17593 2.32343 6.29272 2.11151 6.41968C1.8996 6.54663 1.69374 6.70405 1.65136 6.77515C1.47577 7.09507 0.930847 8.40015 0.930847 8.49663C0.930847 8.55757 1.0035 8.66929 1.08827 8.74038L1.24569 8.87241L2.35975 8.84702L3.47382 8.82163L3.89764 8.55757C4.27303 8.32905 4.33964 8.30366 4.45468 8.35444C4.55155 8.39507 4.75741 8.40015 5.19335 8.36968C5.53241 8.34429 6.10761 8.32397 6.47089 8.32905C7.31249 8.32905 7.70604 8.42554 9.04413 8.95874C9.59511 9.1771 10.2914 9.43101 10.5881 9.52241C11.0906 9.67476 11.1935 9.68999 11.8959 9.69507L12.6588 9.70015L13.2703 9.9896C13.6033 10.147 13.9484 10.2791 14.0332 10.2791C14.3965 10.2791 14.6266 9.85757 14.3904 9.62905C14.3299 9.57319 13.9303 9.35991 13.5004 9.16187C12.8465 8.85718 12.6891 8.80132 12.5316 8.83179C11.6113 8.98921 11.1814 8.90796 9.58905 8.27319C7.63944 7.49116 7.02186 7.39468 5.15702 7.56733C4.72714 7.60796 4.69686 7.53687 5.02382 7.23726C5.61112 6.68882 6.56171 6.60757 7.92401 6.98843C8.51737 7.15093 8.81405 7.15601 9.18339 6.99858C9.90995 6.68882 10.1764 5.87124 9.73436 5.3228C9.6496 5.22124 9.60116 5.11968 9.63143 5.09429C9.65565 5.07397 10.1582 4.76929 10.7394 4.4189L11.793 3.77905L12.0291 3.97202C12.3621 4.24116 13.016 4.92671 13.24 5.24663C13.3974 5.47007 13.6639 5.67319 14.7295 6.37397C16.1342 7.30835 16.2371 7.34897 16.5217 7.10522C16.7154 6.9478 16.7215 6.70913 16.5398 6.55679C16.4611 6.49585 15.9101 6.12007 15.3107 5.72397C14.3359 5.08413 14.1846 4.96226 13.8758 4.5814C13.6881 4.35288 13.3248 3.96694 13.0766 3.72827L12.6224 3.29663L12.9252 3.07319C13.3611 2.75327 13.4943 2.51968 13.4943 2.05249C13.4943 1.77827 13.458 1.62085 13.3793 1.4939C13.2219 1.24507 12.9312 0.996241 12.6527 0.874366C12.3924 0.762647 11.8293 0.711865 11.581 0.777882ZM12.2168 1.59546C12.3863 1.64624 12.5558 1.88491 12.5558 2.06265C12.5498 2.28101 12.3984 2.40796 11.4902 2.96147L10.576 3.51499L10.2308 3.13921C10.0432 2.93101 9.89784 2.74312 9.92206 2.71772C9.95839 2.66694 11.5326 1.7021 11.7385 1.60562C11.8898 1.53452 12.017 1.52944 12.2168 1.59546ZM9.18944 1.86968L9.42557 1.98647L8.46288 2.57046C4.29725 5.09937 3.5162 5.56147 3.43143 5.53608C3.35272 5.51069 3.36483 5.47515 3.49803 5.33804C3.81288 5.01304 4.12772 4.61187 4.37596 4.20054C4.70292 3.67749 4.92089 3.50991 5.49003 3.36772C6.0955 3.21538 6.32557 3.10874 7.48807 2.45874C8.35995 1.97124 8.79589 1.75796 8.92304 1.7478C8.9412 1.7478 9.05624 1.80366 9.18944 1.86968ZM9.43768 3.60132C9.63143 3.8146 9.77675 3.99233 9.76464 4.00249C9.75253 4.01265 9.04413 4.44429 8.19647 4.95718L6.65253 5.89155L6.12577 5.94741C5.83514 5.98296 5.45975 6.05913 5.28417 6.12007L4.96932 6.23687L4.79979 6.06421L4.62421 5.89155L5.05409 5.63765C5.29022 5.49546 6.28319 4.89624 7.25194 4.3021C8.22069 3.71304 9.03202 3.22554 9.05018 3.22554C9.06835 3.22046 9.24393 3.39312 9.43768 3.60132ZM8.98358 5.92202C8.98358 6.05913 8.88065 6.2064 8.74139 6.26733C8.65057 6.30796 8.53553 6.30288 8.28729 6.23687C8.10565 6.18608 7.95429 6.1353 7.95429 6.12007C7.96034 6.10483 8.14198 5.98296 8.366 5.84585L8.77167 5.60718L8.88065 5.71382C8.93514 5.77476 8.98358 5.86616 8.98358 5.92202ZM4.0369 6.97319C3.95819 7.1103 3.87343 7.30835 3.85526 7.41499C3.83104 7.58765 3.77655 7.64351 3.48593 7.81108C3.17108 7.99897 3.11053 8.01421 2.64432 8.03452C2.36581 8.04976 2.14178 8.0396 2.14178 8.01421C2.14178 7.94312 2.45663 7.26265 2.52323 7.19155C2.5535 7.15601 2.86835 6.95796 3.21952 6.74976L3.84921 6.3689L4.01874 6.55171L4.19432 6.72944L4.0369 6.97319Z" fill="white"/>
</svg>
